<svg id="Layer_1" data-name="Layer 1" xmlns="http://www.w3.org/2000/svg" viewBox="0 0 512.22 144.59"><defs><style>.cls-1{font-size:72px;font-family:LatinaEssential-Bold, Latina Essential;font-weight:700;}.cls-2{letter-spacing:-0.01em;}.cls-3{letter-spacing:-0.01em;}.cls-4{letter-spacing:-0.01em;}.cls-5{letter-spacing:0em;}.cls-6{letter-spacing:-0.01em;}.cls-7{letter-spacing:-0.02em;}.cls-10,.cls-11,.cls-8,.cls-9{fill:none;}.cls-11,.cls-9{stroke:#000;}.cls-10,.cls-11,.cls-9{stroke-miterlimit:8;stroke-width:5px;}.cls-10{stroke:#4472c4;}.cls-11{stroke-linecap:round;}</style></defs><title>logo</title><text class="cls-1" transform="translate(0 61.96)">Cambrid<tspan class="cls-2" x="310.46" y="0">g</tspan><tspan x="354.24" y="0">e</tspan><tspan class="cls-3" x="0" y="66">C</tspan><tspan x="46.66" y="66">ou</tspan><tspan class="cls-4" x="141.33" y="66">r</tspan><tspan class="cls-5" x="172.15" y="66">s</tspan><tspan class="cls-6" x="210.81" y="66">ew</tspan><tspan x="318.81" y="66">a</tspan><tspan class="cls-7" x="362.01" y="66">r</tspan><tspan x="392.25" y="66">e</tspan></text><path class="cls-8" d="M430.16,73.2C424.69,60.43,431.55,46,445.48,41S475.14,42.25,480.61,55l16.22,37.88c5.48,12.77-1.38,27.2-15.31,32.21h0c-13.93,5-29.66-1.27-35.13-14Z"/><path class="cls-9" d="M441.16,73.2C435.69,60.43,442.55,46,456.48,41S486.14,42.25,491.61,55l16.22,37.88c5.48,12.77-1.38,27.2-15.31,32.21h0c-13.93,5-29.66-1.27-35.13-14Z"/><line class="cls-10" x1="445.48" y1="40.98" x2="445.48" y2="40.98"/><line class="cls-11" x1="463.3" y1="56.91" x2="469.34" y2="71"/><path class="cls-11" d="M454.38,34.66c-1.29-5.12-2.72-9.43-7.73-10.65s-16.72,5.71-22.31,3.34-8.84-7.48-11.21-17.54"/></svg>