<svg id="Layer_1" data-name="Layer 1" xmlns="http://www.w3.org/2000/svg" viewBox="0 0 501.22 143.4"><defs><style>.cls-1{font-size:72px;font-family:ArialRoundedMTBold, Arial Rounded MT Bold;}.cls-2{letter-spacing:-0.02em;}.cls-3{letter-spacing:-0.01em;}.cls-4,.cls-5,.cls-6,.cls-7{fill:none;}.cls-5,.cls-7{stroke:#000;}.cls-5,.cls-6,.cls-7{stroke-miterlimit:8;stroke-width:5px;}.cls-6{stroke:#4472c4;}.cls-7{stroke-linecap:round;}</style></defs><title>logo</title><text class="cls-1" transform="translate(0 62.21)">Cambrid<tspan class="cls-2" x="300.83" y="0">g</tspan><tspan x="344.04" y="0">e</tspan><tspan x="0" y="66">Cou</tspan><tspan class="cls-2" x="140.27" y="66">r</tspan><tspan x="170.02" y="66">s</tspan><tspan class="cls-3" x="209.04" y="66">ew</tspan><tspan x="308.46" y="66">a</tspan><tspan class="cls-2" x="351.25" y="66">r</tspan><tspan x="380.99" y="66">e</tspan></text><path class="cls-4" d="M442.32,78.52c-5.48-12.78,1.38-27.2,15.31-32.22s29.66,1.27,35.13,14.05L509,98.22c5.48,12.78-1.38,27.2-15.31,32.22h0c-13.93,5-29.66-1.27-35.13-14Z" transform="translate(-12.15 -5.06)"/><path class="cls-5" d="M442.32,78.52c-5.48-12.78,1.38-27.2,15.31-32.22s29.66,1.27,35.13,14.05L509,98.22c5.48,12.78-1.38,27.2-15.31,32.22h0c-13.93,5-29.66-1.27-35.13-14Z" transform="translate(-12.15 -5.06)"/><line class="cls-6" x1="445.48" y1="41.24" x2="445.48" y2="41.24"/><line class="cls-7" x1="452.3" y1="57.16" x2="458.34" y2="71.25"/><path class="cls-7" d="M455.54,40c-1.29-5.13-2.73-9.43-7.74-10.65S431.08,35,425.5,32.67s-8.85-7.48-11.21-17.55" transform="translate(-12.15 -5.06)"/></svg>